# xmcd
#
# Track frame offsets: 
#        150
#        13105
#        19079
#        34078
#        42617
#        58652
#        68825
#        77314
#        86098
#        96087
#        103229
#        114331
#        121068
#        132589
#        142852
#        151002
#        161332
#        172907
#        190339
#        201838
#        215893
#        224041
#        234841
#        249249
#        263246
#
# Disc length: 3593 seconds
#
# Revision: 0
# Processed by: cddbd v1.5.2PL0 Copyright (c) Steve Scherf et al.
# Submitted via: ExactAudioCopy v1.0b1
#
DISCID=580e0719
DTITLE=Bob Wills and His Texas Playboys - Ole Buttermilk Sky (Tiffany Tr
DTITLE=anscriptions 1945-1947)
DYEAR=2002
DGENRE=Western Swing
TTITLE0=Nobody's Darling But Mine
TTITLE1=Grey Eagle
TTITLE2=I'll Get Mine
TTITLE3=I'll Keep On Loving You
TTITLE4=My Brown Eyed Texas Rose
TTITLE5=Moonlight On The Prairie
TTITLE6=Patty On The Turnpike (Instrumental)
TTITLE7=Ole Buttermilk Sky
TTITLE8=Smile, Darn You Smile
TTITLE9=Hoppin' Lucy (aka Texas Two-Step) (Instrumental)
TTITLE10=That's How Much I Love You
TTITLE11=Silver On The Sage Tonight
TTITLE12=Who's Sorry Now
TTITLE13=Chicken Reel (Instrumental)
TTITLE14=Who's Heart Are You Breaking Now
TTITLE15=Don't Fence Me In
TTITLE16=I Don't Know Why
TTITLE17=On The Alamo (Instrumental)
TTITLE18=I'll String Along With You
TTITLE19=Cowboy's Dream (Roll On Little Doggies, Roll On)
TTITLE20=Sally Gooden No.1 (Instrumental)
TTITLE21=Silver Dew On The Bluegrass Tonight
TTITLE22=Sleepy Rio Grande
TTITLE23=Travelling Blues
TTITLE24=Durang's Hornpipe
EXTD=
EXTT0=
EXTT1=
EXTT2=
EXTT3=
EXTT4=
EXTT5=
EXTT6=
EXTT7=
EXTT8=
EXTT9=
EXTT10=
EXTT11=
EXTT12=
EXTT13=
EXTT14=
EXTT15=
EXTT16=
EXTT17=
EXTT18=
EXTT19=
EXTT20=
EXTT21=
EXTT22=
EXTT23=
EXTT24=
PLAYORDER=
